<svg xmlns="http://www.w3.org/2000/svg" xmlns:xlink="http://www.w3.org/1999/xlink" width="500" zoomAndPan="magnify" viewBox="0 0 375 374.999991" height="500" preserveAspectRatio="xMidYMid meet" version="1.0"><defs><clipPath id="fc0e5e3f07"><path d="M 60.511719 15.046875 L 314.761719 15.046875 L 314.761719 360 L 60.511719 360 Z M 60.511719 15.046875 " clip-rule="nonzero"/></clipPath></defs><g clip-path="url(#fc0e5e3f07)"><path fill="#ee4343" d="M 66.753906 171.46875 L 78.328125 179.890625 C 78.875 180.285156 79.46875 180.589844 80.113281 180.796875 C 80.753906 181.007812 81.414062 181.109375 82.085938 181.109375 C 82.761719 181.109375 83.421875 181.007812 84.0625 180.796875 C 84.703125 180.589844 85.300781 180.285156 85.84375 179.890625 L 117.203125 157.074219 L 148.5625 179.890625 C 149.105469 180.285156 149.699219 180.589844 150.34375 180.796875 C 150.984375 181.007812 151.644531 181.109375 152.320312 181.109375 C 152.992188 181.109375 153.652344 181.007812 154.292969 180.796875 C 154.9375 180.589844 155.53125 180.285156 156.074219 179.890625 L 187.441406 157.074219 L 218.792969 179.886719 C 219.335938 180.285156 219.933594 180.589844 220.574219 180.796875 C 221.214844 181.003906 221.875 181.109375 222.550781 181.109375 C 223.222656 181.109375 223.882812 181.003906 224.523438 180.796875 C 225.167969 180.589844 225.761719 180.285156 226.304688 179.886719 L 257.6875 157.070312 L 289.09375 179.890625 C 289.636719 180.285156 290.230469 180.589844 290.871094 180.796875 C 291.515625 181.003906 292.171875 181.109375 292.847656 181.109375 C 293.519531 181.109375 294.179688 181.003906 294.820312 180.796875 C 295.460938 180.589844 296.054688 180.285156 296.601562 179.890625 L 308.214844 171.449219 C 308.6875 171.109375 309.105469 170.710938 309.464844 170.253906 C 309.828125 169.796875 310.121094 169.300781 310.347656 168.765625 C 310.574219 168.226562 310.722656 167.671875 310.796875 167.09375 C 310.871094 166.515625 310.867188 165.941406 310.78125 165.363281 C 303.183594 113.199219 286.050781 80.519531 273.019531 62.289062 C 250.917969 31.382812 221.339844 15.046875 187.488281 15.046875 C 153.636719 15.046875 124.054688 31.386719 101.949219 62.300781 C 78.335938 95.328125 68.382812 136.585938 64.1875 165.382812 C 64.105469 165.957031 64.101562 166.535156 64.175781 167.113281 C 64.25 167.6875 64.398438 168.246094 64.625 168.78125 C 64.851562 169.316406 65.144531 169.8125 65.503906 170.269531 C 65.867188 170.726562 66.28125 171.125 66.753906 171.46875 Z M 112.34375 69.730469 C 132.226562 41.921875 157.507812 27.820312 187.488281 27.820312 C 217.46875 27.820312 242.742188 41.917969 262.628906 69.722656 C 279.570312 93.417969 291.617188 125.742188 297.5625 163.398438 L 292.84375 166.832031 L 261.4375 144.011719 C 260.890625 143.613281 260.296875 143.3125 259.65625 143.101562 C 259.015625 142.894531 258.359375 142.789062 257.683594 142.789062 C 257.007812 142.789062 256.351562 142.894531 255.707031 143.101562 C 255.066406 143.3125 254.472656 143.613281 253.925781 144.011719 L 222.550781 166.828125 L 191.199219 144.011719 C 190.652344 143.613281 190.058594 143.3125 189.417969 143.101562 C 188.777344 142.894531 188.117188 142.789062 187.441406 142.789062 C 186.765625 142.789062 186.109375 142.894531 185.464844 143.101562 C 184.824219 143.3125 184.230469 143.613281 183.683594 144.011719 L 152.316406 166.824219 L 120.957031 144.011719 C 120.414062 143.613281 119.816406 143.308594 119.175781 143.101562 C 118.535156 142.894531 117.875 142.789062 117.199219 142.789062 C 116.527344 142.789062 115.867188 142.894531 115.226562 143.101562 C 114.582031 143.308594 113.988281 143.613281 113.441406 144.011719 L 82.085938 166.824219 L 77.40625 163.421875 C 83.351562 125.761719 95.398438 93.429688 112.34375 69.730469 Z M 314.058594 214.832031 C 314.039062 214.25 313.941406 213.683594 313.769531 213.132812 C 313.59375 212.578125 313.347656 212.058594 313.035156 211.574219 C 312.71875 211.085938 312.34375 210.648438 311.910156 210.265625 C 311.476562 209.882812 310.996094 209.5625 310.476562 209.308594 C 309.957031 209.054688 309.410156 208.871094 308.839844 208.765625 C 308.269531 208.660156 307.695312 208.632812 307.117188 208.683594 C 306.539062 208.734375 305.980469 208.863281 305.4375 209.066406 C 304.894531 209.269531 304.386719 209.539062 303.917969 209.882812 L 292.84375 217.929688 L 261.4375 195.109375 C 260.890625 194.710938 260.296875 194.410156 259.65625 194.199219 C 259.015625 193.992188 258.355469 193.886719 257.679688 193.886719 C 257.007812 193.886719 256.347656 193.992188 255.707031 194.199219 C 255.066406 194.410156 254.472656 194.710938 253.925781 195.109375 L 222.546875 217.925781 L 191.199219 195.109375 C 190.652344 194.710938 190.058594 194.410156 189.417969 194.199219 C 188.777344 193.992188 188.117188 193.886719 187.441406 193.886719 C 186.765625 193.886719 186.109375 193.992188 185.464844 194.199219 C 184.824219 194.410156 184.230469 194.710938 183.683594 195.109375 L 152.316406 217.921875 L 120.957031 195.109375 C 120.414062 194.710938 119.816406 194.40625 119.175781 194.199219 C 118.535156 193.988281 117.875 193.886719 117.199219 193.886719 C 116.527344 193.886719 115.867188 193.988281 115.226562 194.199219 C 114.582031 194.40625 113.988281 194.710938 113.441406 195.109375 L 82.085938 217.921875 L 71.058594 209.898438 C 70.589844 209.558594 70.082031 209.285156 69.539062 209.082031 C 68.996094 208.878906 68.4375 208.753906 67.859375 208.703125 C 67.28125 208.652344 66.707031 208.679688 66.136719 208.785156 C 65.566406 208.890625 65.019531 209.070312 64.5 209.324219 C 63.980469 209.578125 63.5 209.898438 63.066406 210.285156 C 62.632812 210.667969 62.257812 211.101562 61.941406 211.589844 C 61.628906 212.078125 61.382812 212.597656 61.207031 213.148438 C 61.035156 213.703125 60.9375 214.269531 60.917969 214.847656 C 60.773438 219.074219 60.710938 222.558594 60.710938 225.820312 C 60.710938 268.878906 73.582031 303.996094 97.9375 327.371094 C 120.140625 348.683594 151.109375 359.953125 187.488281 359.953125 C 223.867188 359.953125 254.835938 348.683594 277.039062 327.371094 C 301.390625 303.996094 314.265625 268.878906 314.265625 225.820312 C 314.265625 222.558594 314.199219 219.066406 314.058594 214.832031 Z M 268.195312 318.15625 C 248.414062 337.140625 220.507812 347.175781 187.488281 347.175781 C 154.46875 347.175781 126.5625 337.140625 106.78125 318.15625 C 84.992188 297.238281 73.792969 266.734375 73.488281 227.464844 L 78.324219 230.984375 C 78.871094 231.382812 79.464844 231.6875 80.109375 231.894531 C 80.75 232.105469 81.410156 232.207031 82.082031 232.207031 C 82.757812 232.207031 83.417969 232.105469 84.058594 231.894531 C 84.703125 231.6875 85.296875 231.382812 85.839844 230.984375 L 117.199219 208.171875 L 148.558594 230.984375 C 149.105469 231.382812 149.699219 231.6875 150.339844 231.894531 C 150.980469 232.101562 151.640625 232.207031 152.316406 232.207031 C 152.992188 232.207031 153.648438 232.101562 154.289062 231.894531 C 154.933594 231.6875 155.527344 231.382812 156.074219 230.984375 L 187.4375 208.171875 L 218.792969 230.984375 C 219.335938 231.382812 219.933594 231.683594 220.574219 231.894531 C 221.214844 232.101562 221.875 232.207031 222.550781 232.207031 C 223.222656 232.207031 223.882812 232.101562 224.523438 231.894531 C 225.167969 231.683594 225.761719 231.382812 226.304688 230.984375 L 257.6875 208.167969 L 289.09375 230.988281 C 289.636719 231.382812 290.230469 231.6875 290.871094 231.894531 C 291.515625 232.101562 292.171875 232.207031 292.847656 232.207031 C 293.519531 232.207031 294.179688 232.101562 294.820312 231.894531 C 295.460938 231.6875 296.054688 231.382812 296.601562 230.988281 L 301.488281 227.433594 C 301.1875 266.71875 289.992188 297.234375 268.195312 318.15625 Z M 268.195312 318.15625 " fill-opacity="1" fill-rule="nonzero"/></g></svg>